<?xml version="1.0" ?><svg enable-background="new 0 0 512 512" id="Layer_2" version="1.1" viewBox="0 0 512 512" xml:space="preserve" xmlns="http://www.w3.org/2000/svg" xmlns:xlink="http://www.w3.org/1999/xlink"><g><g><g><path d="     M74.559,239.313c-35.961,8.888-57.694,20.449-57.694,33.088c0,28.049,107.034,50.788,239.068,50.788S495,300.45,495,272.401     c0-11.298-17.364-21.734-46.732-30.169c0,0-19.904-4.946-32.904-6.946" fill="none" stroke="#474747" stroke-linecap="round" stroke-linejoin="round" stroke-miterlimit="10" stroke-width="15"/><path d="     M277.365,222.286c-59-2-120.935,3.18-148,7" fill="none" stroke="#474747" stroke-linecap="round" stroke-linejoin="round" stroke-miterlimit="10" stroke-width="15"/><path d="     M16.865,274.932c15.845,108.117,59.097,132.277,72.519,148.181c2.266,2.685,4.405,5.455,6.489,8.285     c18.513,25.137,74.515,42.268,160.06,42.268c84.032,0,145.39-20.419,160.159-41.686c2.802-4.035,5.979-7.792,9.23-11.475     c16.216-18.373,56.505-39.305,69.679-145.573" fill="none" stroke="#474747" stroke-linecap="round" stroke-linejoin="round" stroke-miterlimit="10" stroke-width="15"/><path d="     M402.923,447.041v16.086c0,19.3-65.313,34.945-145.881,34.945S111.16,482.426,111.16,463.126v-16.086" fill="none" stroke="#474747" stroke-linecap="round" stroke-linejoin="round" stroke-miterlimit="10" stroke-width="15"/><path d="     M382.064,282.042c1.216-0.112,2.347-0.22,3.372-0.322" fill="none" stroke="#474747" stroke-linecap="round" stroke-linejoin="round" stroke-miterlimit="10" stroke-width="15"/><path d="     M338.58,286.025c5.322-0.273,10.161-0.742,17.239-1.267" fill="none" stroke="#474747" stroke-linecap="round" stroke-linejoin="round" stroke-miterlimit="10" stroke-width="15"/><path d="     M227.988,282.137c22.088,2.032,48.359,3.21,76.548,3.21" fill="none" stroke="#474747" stroke-linecap="round" stroke-linejoin="round" stroke-miterlimit="10" stroke-width="15"/><path d="     M221.193,252.744c-37.924,1.109-58.634,5.464-58.634,12.243c0,4.854,11.848,9.312,31.625,12.811" fill="none" stroke="#474747" stroke-linecap="round" stroke-linejoin="round" stroke-miterlimit="10" stroke-width="15"/></g><path d="    M115.37,269.531L62.213,108.609C58.497,97.36,46.102,91.534,35.069,95.85l0,0c-11.033,4.316-16.183,17.007-11.278,27.791    l70.16,154.269" fill="none" stroke="#474747" stroke-linecap="round" stroke-linejoin="round" stroke-miterlimit="10" stroke-width="15"/></g><path d="   M343.033,46.593l-15.847,31.253c-1.929,3.804-2.934,8.01-2.934,12.275v25.872c0,5.043,1.405,9.979,4.054,14.27   c5.806,9.403,16.462,27.472,22.593,42.843c3.271,8.2,10.224,14.369,18.806,16.44l0.086,0.021c4.186,1.01,8.552,1.01,12.738,0   l0.086-0.021c8.582-2.071,15.536-8.24,18.806-16.44c6.131-15.371,16.787-33.441,22.593-42.843c2.649-4.291,4.054-9.227,4.054-14.27   V90.122c0-4.265-1.005-8.471-2.934-12.275l-15.847-31.253l-10.773-10.279c-14.483-13.819-33.733-21.529-53.751-21.529h0   c-37.073,0-69.005,26.138-76.33,62.48l0,0c-9.059,44.946,1.409,91.624,28.793,128.398l6.766,9.086   c11.257,15.117,4.956,36.804-12.649,43.536h0" fill="none" stroke="#474747" stroke-linecap="round" stroke-linejoin="round" stroke-miterlimit="10" stroke-width="15"/><line fill="none" stroke="#474747" stroke-linecap="round" stroke-linejoin="round" stroke-miterlimit="10" stroke-width="15" x1="406.866" x2="398.093" y1="115.071" y2="128.962"/><line fill="none" stroke="#474747" stroke-linecap="round" stroke-linejoin="round" stroke-miterlimit="10" stroke-width="15" x1="343.991" x2="352.765" y1="115.071" y2="128.962"/><path d="   M385.365,213.286c0,0,18,25-3,45" fill="none" stroke="#474747" stroke-linecap="round" stroke-linejoin="round" stroke-miterlimit="10" stroke-width="15"/></g></svg>